<svg width="177" height="30" viewBox="0 0 177 30" fill="none" xmlns="http://www.w3.org/2000/svg">
<path d="M177 22.8276H42.6553V24.837H177V22.8276Z" fill="url(#paint0_linear_1897_8374)"/>
<circle cx="15" cy="15" r="15" fill="#3A3A3C"/>
<path d="M100.96 4.17941C101.099 4.41731 101.173 4.6877 101.175 4.96326C101.176 5.23881 101.104 5.50978 100.966 5.74879C100.829 5.9878 100.63 6.18639 100.391 6.32449C100.152 6.46259 99.8801 6.53531 99.6037 6.53531C99.3272 6.53531 99.0557 6.46259 98.8164 6.32449C98.5772 6.18639 98.3788 5.9878 98.2412 5.74879C98.1036 5.50978 98.0317 5.23881 98.0328 4.96326C98.0339 4.6877 98.108 4.41731 98.2475 4.17941H100.96ZM47.027 13.2713C46.2127 13.7133 45.3089 13.9666 44.3828 14.0124C42.3983 14.0124 41.0264 12.9686 41.0264 10.6669V7.01344H43.236V10.0197C43.236 11.2567 43.723 11.956 44.8488 11.956C45.6275 11.9732 46.3923 11.7489 47.0375 11.3141V7.01866H49.2367V16.9873H47.0375L47.027 13.2713ZM51.6244 7.00822H59.1803V8.9602H53.8236V11.0009H58.5362V12.9529H53.8236V15.0406H59.2483V16.9873H51.6349L51.6244 7.00822ZM61.1962 7.00822H65.2804C67.6681 7.00822 69.1081 8.42263 69.1081 10.4842C69.1081 12.7911 67.3121 13.9863 65.0657 13.9863H63.4059V16.9769H61.2067L61.1962 7.00822ZM65.1495 12.0448C66.2491 12.0448 66.8932 11.3871 66.8932 10.479C66.8932 9.49778 66.2072 8.97064 65.1076 8.97064H63.4059V12.0448H65.1495ZM70.747 7.01344H72.9776V10.9592H77.0304V7.01866H79.2087V16.9873H77.0043V12.9894H72.9776V16.9873H70.747V7.01344ZM81.6069 7.01344H83.8061V10.4059H85.932C88.2464 10.4059 89.5973 11.6846 89.5973 13.6366C89.5973 15.6878 88.1417 16.9821 85.7958 16.9821H81.6069V7.01344ZM83.8061 12.2848V15.004H85.7644C86.8483 15.004 87.4086 14.5343 87.4086 13.6105C87.4086 12.7702 86.8483 12.2848 85.7487 12.2848H83.8061ZM90.7074 7.01344H92.9066V16.9821H90.7074V7.01344ZM103.918 16.9821H101.777V10.479L97.3783 16.9873H95.2838V7.01866H97.4568V13.5583L101.855 7.01866H103.897L103.918 16.9821ZM116.302 16.9821V14.3412L114.977 12.9164L112.16 16.9873H109.542L113.501 11.3349L109.683 7.01866H112.301L116.312 11.6794V7.01866H118.501V11.6794L122.512 7.01866H125.13L121.313 11.3349L125.272 16.9873H122.653L119.826 12.9164L118.512 14.3412V16.9873L116.302 16.9821ZM126.586 7.01344H134.131V8.96542H128.775V11.0009H133.487V12.9529H128.775V15.0406H134.204V16.9873H126.586V7.01344ZM136.158 7.01344H138.53L141.148 11.2306L143.766 7.01344H146.138V16.9821H143.954V10.479L141.137 14.7326H141.08L138.294 10.5207V16.9873H136.137L136.158 7.01344ZM154.359 13.2765C153.552 13.7147 152.658 13.968 151.74 14.0176C149.756 14.0176 148.384 12.9738 148.384 10.6721V7.01866H150.583V10.0249C150.583 11.2619 151.07 11.9612 152.201 11.9612C152.978 11.9784 153.741 11.754 154.385 11.3193V7.01866H156.584V16.9873H154.385L154.359 13.2765ZM165.601 7.01344H167.988L164.145 14.7222C163.271 16.455 162.27 17.1387 160.872 17.1387C160.114 17.1438 159.368 16.9436 158.715 16.5594L159.574 14.9466C159.929 15.1661 160.339 15.2801 160.757 15.2754C161.019 15.2643 161.273 15.1846 161.493 15.0444C161.714 14.9042 161.893 14.7084 162.014 14.4769L158.013 7.01344H160.474L163.187 12.2848L165.601 7.01344ZM171.643 16.9821H169.444V7.01866H176.429V9.00196H171.643V16.9821Z" fill="black"/>
<path d="M17.4162 0.186771C14.477 -0.2799 11.465 0.132601 8.76102 1.37211C6.05704 2.61163 3.78251 4.62249 2.22504 7.15043C0.667567 9.67838 -0.102908 12.6099 0.0110362 15.5743C0.124981 18.5387 1.11823 21.4028 2.86519 23.8046C4.61215 26.2063 7.03436 28.0378 9.82556 29.0675C12.6168 30.0971 15.6516 30.2787 18.5463 29.5893C21.4411 28.8998 24.0657 27.3703 26.0883 25.1941C28.111 23.0178 29.4408 20.2927 29.9097 17.3632C30.2211 15.4176 30.145 13.43 29.6856 11.5139C29.2262 9.59768 28.3926 7.79046 27.2325 6.19543C26.0723 4.6004 24.6083 3.2488 22.924 2.21783C21.2397 1.18685 19.3681 0.496692 17.4162 0.186771ZM1.93273 12.9112C2.24606 10.9451 3.00131 9.07511 4.142 7.44103C5.28269 5.80695 6.77929 4.45109 8.51986 3.47487C7.28771 4.82302 6.52871 6.53393 6.35732 8.34961C6.22935 9.58165 6.3813 10.8266 6.8019 11.9921C7.22249 13.1577 7.90093 14.2139 8.78691 15.0824C11.3684 17.5928 15.3898 19.1795 19.0656 17.3841C22.6262 15.6513 23.0032 10.3799 19.4687 7.8851C17.2591 6.31934 13.599 6.34543 12.7507 8.64188C12.5592 9.2729 12.5898 9.95019 12.8374 10.5615C13.085 11.1728 13.5348 11.6814 14.1121 12.003C16.4318 13.3653 18.7304 11.4185 17.4109 9.58656C18.5734 9.978 19.6206 11.5333 19.097 13.3444C18.3116 16.0688 14.73 17.0396 11.6982 15.1346C7.73444 12.6502 7.89152 7.46234 10.1797 4.93625C13.8084 0.91746 19.6049 1.70034 23.2074 4.52393C28.4436 8.62101 28.3336 15.2964 25.1343 18.6993C24.2764 19.5829 23.2385 20.273 22.0905 20.7232C20.9425 21.1733 19.7111 21.373 18.4791 21.3089C13.5833 21.1314 10.5044 17.0709 7.44121 15.4947C5.76039 14.6127 3.14229 14.2369 1.81753 15.8392C1.74435 14.862 1.78299 13.8797 1.93273 12.9112ZM4.14764 22.5615C7.65589 23.7097 9.08014 21.9091 8.39943 20.5886C9.99647 21.93 10.1483 25.7765 12.9026 28.0625C11.1478 27.7776 9.46839 27.1437 7.96435 26.1987C6.46031 25.2536 5.16234 24.0167 4.14764 22.5615ZM20.1442 27.2118C20.2728 26.9863 20.3519 26.7362 20.3763 26.478C20.4007 26.2198 20.3698 25.9593 20.2856 25.7139C20.1234 25.3142 19.8106 24.9936 19.4143 24.821C19.0179 24.6483 18.5694 24.6372 18.1649 24.7901C17.6099 24.9415 17.0601 25.4947 17.2381 26.0792C17.4162 26.6638 18.233 26.8621 18.9189 26.4707C18.9923 27.1387 18.3691 27.8381 17.3952 27.9686C15.8715 28.1721 14.4263 27.0866 13.1382 25.359C12.1485 24.0542 11.4155 22.3371 10.5567 21.121C9.80797 20.0772 8.3366 18.1774 6.48822 18.4696C6.21141 18.4957 5.95099 18.6122 5.74742 18.8009C5.54384 18.9897 5.40851 19.2402 5.36244 19.5135C5.37517 19.734 5.46948 19.942 5.62713 20.0972C5.78478 20.2524 5.99458 20.3438 6.21594 20.3538C6.36675 20.386 6.52339 20.3784 6.67035 20.3318C6.81731 20.2851 6.94947 20.2009 7.05373 20.0876C7.12165 20.1938 7.16733 20.3125 7.18803 20.4368C7.20873 20.561 7.20402 20.6881 7.17419 20.8105C7.14435 20.9328 7.09001 21.0479 7.01442 21.1488C6.93883 21.2497 6.84356 21.3344 6.73432 21.3976C5.20012 22.2379 2.77052 20.8392 2.40922 18.788C2.06887 16.8047 4.14241 15.6565 6.53011 16.6273C10.8238 18.3966 12.5256 23.2243 18.7514 23.6836C20.5361 23.82 22.3232 23.4516 23.9072 22.6206C25.4912 21.7897 26.8077 20.5299 27.7053 18.9863C27.1213 20.8232 26.1422 22.5108 24.8363 23.9315C23.5303 25.3522 21.9291 26.4717 20.1442 27.2118Z" fill="url(#paint1_linear_1897_8374)"/>
<defs>
<linearGradient id="paint0_linear_1897_8374" x1="42.6526" y1="23.8256" x2="176.984" y2="23.8256" gradientUnits="userSpaceOnUse">
<stop stop-color="#F9DCBC"/>
<stop offset="0.178" stop-color="#FEF9E9"/>
<stop offset="0.4427" stop-color="#FADEB9"/>
<stop offset="0.5281" stop-color="#F5D6AC"/>
<stop offset="0.5754" stop-color="#E6BA93"/>
<stop offset="0.6242" stop-color="#DCAF82"/>
<stop offset="0.6737" stop-color="#D2A47A"/>
<stop offset="0.6996" stop-color="#D9AD7A"/>
<stop offset="0.8182" stop-color="#EED6B5"/>
<stop offset="0.9565" stop-color="#FCEBD5"/>
</linearGradient>
<linearGradient id="paint1_linear_1897_8374" x1="0" y1="0" x2="38.9215" y2="10.0735" gradientUnits="userSpaceOnUse">
<stop stop-color="#FFBE77"/>
<stop offset="0.1875" stop-color="#FFECD2"/>
<stop offset="0.4427" stop-color="#FADEB9"/>
<stop offset="0.65625" stop-color="#D2A47A"/>
<stop offset="0.9565" stop-color="#FCEBD5"/>
</linearGradient>
</defs>
</svg>
