<svg xmlns="http://www.w3.org/2000/svg" xmlns:xlink="http://www.w3.org/1999/xlink">
    <symbol id="reload" viewBox="0 0 24 24" fill="none">
        <path d="M7 23L3 19L7 15" stroke-width="2" stroke-linecap="round" stroke-linejoin="round"/>
        <path d="M21 13V15C21 16.0609 20.5786 17.0783 19.8284 17.8284C19.0783 18.5786 18.0609 19 17 19H3" stroke-width="2" stroke-linecap="round" stroke-linejoin="round"/>
        <path d="M17 1L21 5L17 9" stroke-width="2" stroke-linecap="round" stroke-linejoin="round"/>
        <path d="M3 11V9C3 7.93913 3.42143 6.92172 4.17157 6.17157C4.92172 5.42143 5.93913 5 7 5H21" stroke-width="2" stroke-linecap="round" stroke-linejoin="round"/>
    </symbol>
    <symbol id="arrow" viewBox="0 0 24 24" fill="none">
        <path d="M4 12H20" stroke-width="2" stroke-linecap="round" stroke-linejoin="round"/>
        <path d="M13.3343 5.3335L20.0007 12.0002L13.3341 18.6668" stroke-width="2" stroke-linecap="round" stroke-linejoin="round"/>
    </symbol>
    <symbol id="search" viewBox="0 0 24 24" fill="none">
        <path d="M11 19C15.4183 19 19 15.4183 19 11C19 6.58172 15.4183 3 11 3C6.58172 3 3 6.58172 3 11C3 15.4183 6.58172 19 11 19Z" stroke-width="2" stroke-linecap="round" stroke-linejoin="round"/>
        <path d="M21.0004 20.9999L16.6504 16.6499" stroke-width="2" stroke-linecap="round" stroke-linejoin="round"/>
    </symbol>

    <symbol id="burger" viewBox="0 0 24 24" fill="none">
        <path d="M17 10H3" stroke-width="2" stroke-linecap="round" stroke-linejoin="round"/>
        <path d="M21 6H3" stroke-width="2" stroke-linecap="round" stroke-linejoin="round"/>
        <path d="M21 14H3" stroke-width="2" stroke-linecap="round" stroke-linejoin="round"/>
        <path d="M17 18H3" stroke-width="2" stroke-linecap="round" stroke-linejoin="round"/>
    </symbol>

    <symbol id="chevron-down" viewBox="0 0 24 24" fill="none">
        <path d="M6 9L12 15L18 9" stroke-width="2" stroke-linecap="round" stroke-linejoin="round"/>
    </symbol>

    <symbol id="chevron-right" viewBox="0 0 24 24" fill="none">
        <path d="M15 18L9 12L15 6" stroke-width="2" stroke-linecap="round" stroke-linejoin="round"/>
    </symbol>

    <symbol id="close" viewBox="0 0 24 24" fill="none">
        <path d="M18 6L6 18" stroke-width="2" stroke-linecap="round" stroke-linejoin="round"/>
        <path d="M6 6L18 18" stroke-width="2" stroke-linecap="round" stroke-linejoin="round"/>
    </symbol>

    <symbol id="vk" viewBox="0 0 20 12" fill="none">
        <path fill-rule="evenodd" clip-rule="evenodd" d="M19.18 0.979951C19.3 0.559951 19.18 0.199951 18.52 0.199951H16.42C15.88 0.199951 15.64 0.499951 15.52 0.799951C15.52 0.799951 14.44 3.37995 12.94 5.11995C12.46 5.59995 12.22 5.77995 11.98 5.77995C11.86 5.77995 11.62 5.59995 11.62 5.17995V1.03995C11.62 0.499951 11.5 0.259951 11.02 0.259951H7.72003C7.36002 0.259951 7.18002 0.499951 7.18002 0.739951C7.18002 1.21995 7.96003 1.33995 8.02003 2.77995V5.89995C8.02003 6.55995 7.90002 6.67995 7.66003 6.67995C6.94002 6.67995 5.20002 4.03995 4.18002 1.09995C4.00002 0.499951 3.76003 0.259951 3.22003 0.259951H1.12002C0.520024 0.259951 0.400024 0.559951 0.400024 0.859951C0.400024 1.39995 1.12002 4.15995 3.70002 7.81995C5.44002 10.34 7.90003 11.66 10.12 11.66C11.44 11.66 11.62 11.36 11.62 10.82V8.95995C11.62 8.35995 11.74 8.23995 12.16 8.23995C12.46 8.23995 13 8.41995 14.26 9.61995C15.7 11.06 15.94 11.66 16.72 11.66H18.82C19.42 11.66 19.72 11.36 19.54 10.76C19.36 10.16 18.7 9.31995 17.74 8.29995C17.26 7.69995 16.54 7.09995 16.3 6.79995C16 6.37995 16.06 6.19995 16.3 5.83995C16.3 5.77995 18.88 2.17995 19.18 0.979951Z"/>
    </symbol>

    <symbol id="yt" viewBox="0 0 24 24" fill="none">
        <path fill-rule="evenodd" clip-rule="evenodd" d="M21.18 7.56002C21.6 9.12002 21.6 12.3 21.6 12.3C21.6 12.3 21.6 15.48 21.18 17.04C20.94 17.88 20.28 18.54 19.5 18.78C18 19.2 12 19.2 12 19.2C12 19.2 6.00002 19.2 4.50002 18.78C3.66002 18.54 3.00002 17.88 2.82002 17.04C2.40002 15.48 2.40002 12.3 2.40002 12.3C2.40002 12.3 2.40002 9.12002 2.82002 7.56002C3.06002 6.72002 3.72002 6.06002 4.50002 5.82002C6.00002 5.40002 12 5.40002 12 5.40002C12 5.40002 18 5.40002 19.5 5.82002C20.34 6.06002 21 6.72002 21.18 7.56002ZM10.2 15.6L15 12.6L10.2 9.60002V15.6Z"/>
    </symbol>

    <symbol id="ok" viewBox="0 0 24 24" fill="none">
        <path d="M12 12.3001C9.36001 12.3001 7.20001 10.2001 7.20001 7.68006C7.20001 5.10006 9.36001 3.06006 12 3.06006C14.64 3.06006 16.8 5.16006 16.8 7.68006C16.8 10.2001 14.64 12.3001 12 12.3001ZM12 5.70006C10.92 5.70006 10.02 6.54006 10.02 7.62006C10.02 8.70006 10.92 9.54006 12 9.54006C13.08 9.54006 13.98 8.70006 13.98 7.62006C13.98 6.60006 13.08 5.70006 12 5.70006ZM13.92 16.0801L16.62 18.6601C17.16 19.2001 17.16 20.0401 16.62 20.5801C16.08 21.1201 15.18 21.1201 14.64 20.5801L12 18.0601L9.36001 20.6401C9.06001 20.8801 8.70001 21.0601 8.34001 21.0601C7.98001 21.0601 7.62001 20.9401 7.32001 20.6401C6.78001 20.1001 6.78001 19.2601 7.32001 18.7201L10.02 16.1401C9.06001 15.9001 8.10001 15.5401 7.20001 15.0001C6.54001 14.5801 6.36001 13.7401 6.78001 13.1401C7.20001 12.4801 8.04001 12.3001 8.70001 12.7201C10.68 13.9201 13.2 13.9201 15.18 12.7201C15.84 12.3001 16.68 12.5401 17.1 13.1401C17.52 13.8001 17.34 14.6401 16.68 15.0001C15.9 15.4801 14.94 15.8401 13.92 16.0801Z"/>
    </symbol>

    <symbol id="up-right" viewBox="0 0 24 24" fill="none">
        <path d="M7 17L17 7" stroke-width="2" stroke-linecap="round" stroke-linejoin="round"/>
        <path d="M7 7H17V17" stroke-width="2" stroke-linecap="round" stroke-linejoin="round"/>
    </symbol>



</svg>
